# xmcd
#
# Track frame offsets:
#	150
#	11636
#	28700
#	41316
#	54035
#	66699
#	82249
#	97831
#	108714
#	118731
#	130696
#	142309
#	158469
#	169896
#	184506
#	194946
#	204989
#	219429
#	237319
#	246026
#	258684
#	267506
#	279614
#	289464
#
# Disc length: 4020 seconds
#
# Revision: 0
# Processed by: cddbd v1.5.2PL0 Copyright (c) Steve Scherf et al.
# Submitted via: EasyCDDAExtractor 16.0.6.1
#
DISCID=740fb218
DTITLE=Συλλογικός δίσκος - Θάλασσα πικροθάλασσα-Μέρες του καλοκαιριού
DYEAR=1994
DGENRE=Έντεχνη λαϊκή
TTITLE0=Πουλόπουλος Γιάννης - Η γυναίκα που μού κέντησαν στο χέρι [Θάλασσα πικ
TTITLE0=/σα, Μ.Πλέσσα-Κ.Βίρβου]
TTITLE1=Κουμιώτη Ρένα - Η Ριρή του λιμανιού [Θάλασσα πικ/σα, Μ. Πλέσσα-Κ. Βίρβ
TTITLE1=ου]
TTITLE2=Πουλόπουλος Γιάννης - Ο Γεράσιμος [Θάλασσα πικ/σα, Μ. Πλέσσα-Κ. Βίρβου
TTITLE2=]
TTITLE3=Κουμιώτη Ρένα - Πρόσω ολοταχώς [Θάλασσα πικ/σα, Μ. Πλέσσα-Κ. Βίρβου]
TTITLE4=Πουλόπουλος Γιάννης - Του ναυτικού η μοίρα [Θάλασσα πικ/σα, Μ. Πλέσσα-
TTITLE4=Κ. Βίρβου]
TTITLE5=Αμπάβη Καίτη - Θάλασσα πικροθάλασσα [Θάλασσα πικ/σα, Μ. Πλέσσα-Κ. Βίρβ
TTITLE5=ου]
TTITLE6=Κουμιώτη Ρένα - Η Άγια Κυριακή [Θάλασσα πικ/σα, Μ. Πλέσσα-Κ. Βίρβου]
TTITLE7=Πουλόπουλος Γιάννης - Ο Φουρτούνας κι ο Μπονάτσας [Θάλασσα πικ/σα, Μ. 
TTITLE7=Πλέσσα-Κ. Βίρβου]
TTITLE8=Αμπάβη Καίτη - Τιμονιέρη-μαουνιέρη [Θάλασσα πικ/σα, Μ. Πλέσσα-Κ. Βίρβο
TTITLE8=υ]
TTITLE9=Πουλόπουλος Γιάννης - Βάρκα μας Αγια Σωτήρα [Θάλασσα πικ/σα, Μ. Πλέσσα
TTITLE9=Κ. Βίρβου]
TTITLE10=Κουμιώτη Ρένα - Το παλληκάρι [Θάλασσα πικ/σα, Μ. Πλέσσα-Κ. Βίρβου]
TTITLE11=Πουλόπουλος Γιάννης - Το παλιό λιμάνι [Θάλασσα πικ/σα, Μ. Πλέσσα-Κ. Β
TTITLE11=ίρβου]
TTITLE12=Πουλόπουλος Γιάννης - Πέρα στα παλιά σεράγια [Μέρες καλ/ού, Μ. Πλέσσα
TTITLE12=Λ. Παπαδόπουλου]
TTITLE13=Πουλόπουλος Γιάννης - Νά 'μουν αγέρας [Μέρες καλ/ού, Μ. Πλέσσα-Λ. Παπ
TTITLE13=αδόπουλου]
TTITLE14=Κουμιώτη Ρένα - Αλοίμονο σε μένα [Μέρες καλ/ού, Μ. Πλέσσα-Λ. Παπαδόπο
TTITLE14=υλου]
TTITLE15=Θωμόπουλος Γιάννης - Το παιδί που σ' αγαπάει [Μέρες καλ/ού, Μ. Πλέσσα
TTITLE15=Λ. Παπαδόπουλου]
TTITLE16=Κουμιώτη Ρένα - Τα χέρια του μισάνοιξε [Μέρες καλ/ού, Μ. Πλέσσα-Λ. Πα
TTITLE16=παδόπουλου]
TTITLE17=Πουλόπουλος Γιάννης - Μέρες του καλοκαιριού [Μέρες καλ/ού, Μ. Πλέσσα-
TTITLE17=Λ. Παπαδόπουλου]
TTITLE18=Κουμιώτη Ρένα - Το γλυκό τ' αηδόνι [Μέρες καλ/ού, Μ. Πλέσσα-Λ. Παπαδό
TTITLE18=πουλου]
TTITLE19=Πουλόπουλος Γιάννης-Κουμιώτη Ρένα - Βοήθησέ με [Μέρες καλ/ού, Μ. Πλέσ
TTITLE19=σα-Λ. Παπαδόπουλου]
TTITLE20=Πουλόπουλος Γιάννης - Ένα κορίτσι της προκοπής [Μέρες καλ/ού, Μ. Πλέσ
TTITLE20=σα-Λ. Παπαδόπουλου]
TTITLE21=Κουμιώτη Ρένα - Ένα καράβι [Μέρες καλ/ού, Μ. Πλέσσα-Λ. Παπαδόπουλου]
TTITLE22=Θωμόπουλος Γιάννης - Πάρε το κλειδί [Μέρες καλ/ού, Μ. Πλέσσα-Λ. Παπαδ
TTITLE22=όπουλου]
TTITLE23=Πουλόπουλος Γιάννης - Ποια νύχτα σ' έκλεψε [Μέρες καλ/ού, Μ. Πλέσσα-Λ
TTITLE23=Παπαδόπουλου]
EXTD=
EXTT0=
EXTT1=
EXTT2=
EXTT3=
EXTT4=
EXTT5=
EXTT6=
EXTT7=
EXTT8=
EXTT9=
EXTT10=
EXTT11=
EXTT12=
EXTT13=
EXTT14=
EXTT15=
EXTT16=
EXTT17=
EXTT18=
EXTT19=
EXTT20=
EXTT21=
EXTT22=
EXTT23=
PLAYORDER=
